<?xml version="1.0" encoding="UTF-8"?>
<!DOCTYPE svg PUBLIC "-//W3C//DTD SVG 1.1//EN" "http://www.w3.org/Graphics/SVG/1.1/DTD/svg11.dtd">
<svg xmlns="http://www.w3.org/2000/svg" version="1.1" width="64px" height="64px" style="shape-rendering:geometricPrecision; text-rendering:geometricPrecision; image-rendering:optimizeQuality; fill-rule:evenodd; clip-rule:evenodd" xmlns:xlink="http://www.w3.org/1999/xlink">
<g><path style="opacity:1" fill="#79c657" d="M 19.5,-0.5 C 20.1667,-0.5 20.8333,-0.5 21.5,-0.5C 22.3879,1.27302 23.7212,2.60635 25.5,3.5C 29.3413,2.20639 33.1746,2.20639 37,3.5C 39.0736,2.92834 40.2402,1.59501 40.5,-0.5C 41.5,-0.5 42.5,-0.5 43.5,-0.5C 43.1412,1.37099 42.1412,2.87099 40.5,4C 45.8649,6.89598 48.5316,11.396 48.5,17.5C 36.8333,17.5 25.1667,17.5 13.5,17.5C 13.8772,11.2832 16.8772,6.78322 22.5,4C 20.8588,2.87099 19.8588,1.37099 19.5,-0.5 Z"/></g>
<g><path style="opacity:1" fill="#f3f9ef" d="M 23.5,8.5 C 25.0481,8.82124 25.7148,9.82124 25.5,11.5C 22.7524,11.5983 22.0857,10.5983 23.5,8.5 Z"/></g>
<g><path style="opacity:1" fill="#e2f2da" d="M 37.5,8.5 C 40.8606,9.20318 41.1939,10.5365 38.5,12.5C 36.3576,11.5629 36.0243,10.2296 37.5,8.5 Z"/></g>
<g><path style="opacity:0.985" fill="#78c657" d="M 41.5,63.5 C 39.5,63.5 37.5,63.5 35.5,63.5C 34.5701,59.6002 34.2367,55.6002 34.5,51.5C 32.5,51.5 30.5,51.5 28.5,51.5C 28.7633,55.6002 28.4299,59.6002 27.5,63.5C 25.5,63.5 23.5,63.5 21.5,63.5C 20.5701,59.6002 20.2367,55.6002 20.5,51.5C 18.0637,51.683 15.897,51.0163 14,49.5C 13.5002,39.172 13.3335,28.8387 13.5,18.5C 25.1667,18.5 36.8333,18.5 48.5,18.5C 48.6665,28.8387 48.4998,39.172 48,49.5C 46.4157,50.8613 44.5824,51.528 42.5,51.5C 42.7633,55.6002 42.4299,59.6002 41.5,63.5 Z"/></g>
<g><path style="opacity:1" fill="#79c857" d="M 51.5,19.5 C 53.7925,19.2436 55.9592,19.5769 58,20.5C 58.8313,27.856 58.6646,35.1893 57.5,42.5C 55.0314,44.0066 52.8647,43.6732 51,41.5C 50.2365,34.1175 50.4032,26.7842 51.5,19.5 Z"/></g>
<g><path style="opacity:1" fill="#79c857" d="M 5.5,19.5 C 8.04443,19.1043 10.2111,19.771 12,21.5C 12.6667,28.1667 12.6667,34.8333 12,41.5C 8.84421,44.3988 6.17754,44.0655 4,40.5C 2.95421,33.2975 3.45421,26.2975 5.5,19.5 Z"/></g>
</svg>
