<?xml version="1.0" encoding="UTF-8"?>
<!DOCTYPE svg PUBLIC "-//W3C//DTD SVG 1.1//EN" "http://www.w3.org/Graphics/SVG/1.1/DTD/svg11.dtd">
<svg xmlns="http://www.w3.org/2000/svg" version="1.1" width="64px" height="64px" style="shape-rendering:geometricPrecision; text-rendering:geometricPrecision; image-rendering:optimizeQuality; fill-rule:evenodd; clip-rule:evenodd" xmlns:xlink="http://www.w3.org/1999/xlink">
<g><path style="opacity:0.982" fill="#b32b0f" d="M 42.5,0.5 C 44.0174,0.510559 45.1841,1.17723 46,2.5C 47,4.5 48,6.5 49,8.5C 53.1706,22.8489 58.0039,36.8489 63.5,50.5C 63.5,51.5 63.5,52.5 63.5,53.5C 60.1047,50.0985 56.438,47.0985 52.5,44.5C 50.7226,37.4854 49.0559,30.4854 47.5,23.5C 47.4681,17.1989 46.4681,11.1989 44.5,5.5C 44.1583,4.66175 43.4916,4.32842 42.5,4.5C 42.5,3.16667 42.5,1.83333 42.5,0.5 Z"/></g>
<g><path style="opacity:1" fill="#ffda0e" d="M 42.5,4.5 C 43.4916,4.32842 44.1583,4.66175 44.5,5.5C 44.665,8.8499 44.4983,12.1832 44,15.5C 43.7216,14.5842 43.2216,13.9175 42.5,13.5C 42.5,10.8333 42.5,8.16667 42.5,5.5C 42.5,5.16667 42.5,4.83333 42.5,4.5 Z"/></g>
<g><path style="opacity:1" fill="#478d8d" d="M 41.5,0.5 C 41.1667,1.83333 40.8333,3.16667 40.5,4.5C 37.9306,9.98482 35.5973,15.6515 33.5,21.5C 32.8826,21.3893 32.3826,21.056 32,20.5C 28.2412,23.1274 24.0745,24.7941 19.5,25.5C 20.6138,24.1147 21.6138,22.6147 22.5,21C 26.158,19.5575 29.3246,17.3908 32,14.5C 34.6386,9.38174 37.8052,4.71508 41.5,0.5 Z"/></g>
<g><path style="opacity:1" fill="#454e4e" d="M 33.5,21.5 C 32.6799,23.1401 31.8466,24.8068 31,26.5C 30.4806,25.4844 29.6473,24.8178 28.5,24.5C 25.4243,25.6341 22.4243,26.6341 19.5,27.5C 19.1667,27.5 18.8333,27.5 18.5,27.5C 18.3284,26.5084 18.6618,25.8417 19.5,25.5C 24.0745,24.7941 28.2412,23.1274 32,20.5C 32.3826,21.056 32.8826,21.3893 33.5,21.5 Z"/></g>
<g><path style="opacity:1" fill="#5c130f" d="M 36.5,18.5 C 34.5821,30.0764 29.2488,39.7431 20.5,47.5C 19.8333,47.5 19.5,47.1667 19.5,46.5C 27.2024,38.4332 32.8691,29.0999 36.5,18.5 Z"/></g>
<g><path style="opacity:0.997" fill="#fc840f" d="M 44.5,5.5 C 46.4681,11.1989 47.4681,17.1989 47.5,23.5C 47.4351,30.5244 47.7684,37.5244 48.5,44.5C 47.7095,45.4013 46.7095,46.0679 45.5,46.5C 43.8404,35.5631 42.8404,24.5631 42.5,13.5C 43.2216,13.9175 43.7216,14.5842 44,15.5C 44.4983,12.1832 44.665,8.8499 44.5,5.5 Z"/></g>
<g><path style="opacity:1" fill="#ea650f" d="M 47.5,23.5 C 49.0559,30.4854 50.7226,37.4854 52.5,44.5C 51.2976,43.5946 49.9643,43.5946 48.5,44.5C 47.7684,37.5244 47.4351,30.5244 47.5,23.5 Z"/></g>
<g><path style="opacity:1" fill="#761a0f" d="M 41.5,0.5 C 41.8333,0.5 42.1667,0.5 42.5,0.5C 42.5,1.83333 42.5,3.16667 42.5,4.5C 42.5,4.83333 42.5,5.16667 42.5,5.5C 41.5489,6.91866 41.2155,8.58533 41.5,10.5C 40.5386,12.2646 40.2053,14.2646 40.5,16.5C 38.4583,25.6414 35.625,34.6414 32,43.5C 28.6675,46.0017 25.5008,48.6684 22.5,51.5C 21.3995,50.3951 20.7329,49.0618 20.5,47.5C 29.2488,39.7431 34.5821,30.0764 36.5,18.5C 38.0304,13.9067 39.3637,9.24002 40.5,4.5C 40.8333,3.16667 41.1667,1.83333 41.5,0.5 Z"/></g>
<g><path style="opacity:1" fill="#461b19" d="M 40.5,4.5 C 39.3637,9.24002 38.0304,13.9067 36.5,18.5C 32.8691,29.0999 27.2024,38.4332 19.5,46.5C 18.8333,46.5 18.5,46.1667 18.5,45.5C 21.9658,41.9261 24.9658,37.9261 27.5,33.5C 24.2247,32.9688 21.5581,30.9688 19.5,27.5C 22.4243,26.6341 25.4243,25.6341 28.5,24.5C 29.6473,24.8178 30.4806,25.4844 31,26.5C 31.8466,24.8068 32.6799,23.1401 33.5,21.5C 35.5973,15.6515 37.9306,9.98482 40.5,4.5 Z"/></g>
<g><path style="opacity:0.872" fill="#6cc9c0" d="M 16.5,28.5 C 16.4308,34.3946 14.4308,39.3946 10.5,43.5C 6.45897,41.8011 3.12564,39.1345 0.5,35.5C 5.60104,32.6157 10.9344,30.2824 16.5,28.5 Z"/></g>
<g><path style="opacity:0.938" fill="#69aba3" d="M 18.5,27.5 C 18.8333,27.5 19.1667,27.5 19.5,27.5C 21.5581,30.9688 24.2247,32.9688 27.5,33.5C 24.9658,37.9261 21.9658,41.9261 18.5,45.5C 15.0741,47.4642 12.4074,46.7976 10.5,43.5C 14.4308,39.3946 16.4308,34.3946 16.5,28.5C 16.8417,27.6618 17.5084,27.3284 18.5,27.5 Z"/></g>
<g><path style="opacity:1" fill="#c5520f" d="M 41.5,10.5 C 41.821,23.2049 41.321,35.8716 40,48.5C 38.786,50.0488 37.286,51.2155 35.5,52C 31.205,51.984 27.205,52.8174 23.5,54.5C 23.5,53.8333 23.5,53.1667 23.5,52.5C 31.1781,51.2577 36.0115,46.9244 38,39.5C 38.7523,31.8161 39.5856,24.1495 40.5,16.5C 40.2053,14.2646 40.5386,12.2646 41.5,10.5 Z"/></g>
<g><path style="opacity:1" fill="#a2350f" d="M 40.5,16.5 C 39.5856,24.1495 38.7523,31.8161 38,39.5C 36.0115,46.9244 31.1781,51.2577 23.5,52.5C 22.8333,52.5 22.5,52.1667 22.5,51.5C 25.5008,48.6684 28.6675,46.0017 32,43.5C 35.625,34.6414 38.4583,25.6414 40.5,16.5 Z"/></g>
<g><path style="opacity:0.999" fill="#ee780e" d="M 42.5,5.5 C 42.5,8.16667 42.5,10.8333 42.5,13.5C 42.8404,24.5631 43.8404,35.5631 45.5,46.5C 42.1793,51.1518 38.5126,55.4851 34.5,59.5C 33.9423,58.2101 32.9423,57.3768 31.5,57C 29.1902,56.5034 26.8568,56.3367 24.5,56.5C 24.1667,55.8333 23.8333,55.1667 23.5,54.5C 27.205,52.8174 31.205,51.984 35.5,52C 37.286,51.2155 38.786,50.0488 40,48.5C 41.321,35.8716 41.821,23.2049 41.5,10.5C 41.2155,8.58533 41.5489,6.91866 42.5,5.5 Z"/></g>
<g><path style="opacity:1" fill="#ffde0e" d="M 24.5,56.5 C 26.8568,56.3367 29.1902,56.5034 31.5,57C 32.9423,57.3768 33.9423,58.2101 34.5,59.5C 33.4726,61.1942 32.1392,62.5275 30.5,63.5C 29.1667,63.5 27.8333,63.5 26.5,63.5C 26.1218,61.079 25.4552,58.7457 24.5,56.5 Z"/></g>
</svg>
